<svg xmlns="http://www.w3.org/2000/svg" viewBox="0 0 38 14" width="38px" height="14px"><defs><clipPath id="clip-path"><path fill="none" d="M0 0h38v14H0z"/></clipPath></defs><g id="Repeat_Grid_1" data-name="Repeat Grid 1" clip-path="url(#clip-path)"><g transform="translate(-1430 220.3)"><path id="Path_7" data-name="Path 7" class="cls-3" d="M1.5 0A1.5 1.5 0 1 1 0 1.5 1.5 1.5 0 0 1 1.5 0z" transform="translate(1430 -220.3)"/></g><g transform="translate(-1425 220.3)"><path id="Path_7-2" data-name="Path 7" class="cls-3" d="M1.5 0A1.5 1.5 0 1 1 0 1.5 1.5 1.5 0 0 1 1.5 0z" transform="translate(1430 -220.3)"/></g><g transform="translate(-1420 220.3)"><path id="Path_7-3" data-name="Path 7" class="cls-3" d="M1.5 0A1.5 1.5 0 1 1 0 1.5 1.5 1.5 0 0 1 1.5 0z" transform="translate(1430 -220.3)"/></g><g transform="translate(-1415 220.3)"><path id="Path_7-4" data-name="Path 7" class="cls-3" d="M1.5 0A1.5 1.5 0 1 1 0 1.5 1.5 1.5 0 0 1 1.5 0z" transform="translate(1430 -220.3)"/></g><g transform="translate(-1410 220.3)"><path id="Path_7-5" data-name="Path 7" class="cls-3" d="M1.5 0A1.5 1.5 0 1 1 0 1.5 1.5 1.5 0 0 1 1.5 0z" transform="translate(1430 -220.3)"/></g><g transform="translate(-1405 220.3)"><path id="Path_7-6" data-name="Path 7" class="cls-3" d="M1.5 0A1.5 1.5 0 1 1 0 1.5 1.5 1.5 0 0 1 1.5 0z" transform="translate(1430 -220.3)"/></g><g transform="translate(-1400 220.3)"><path id="Path_7-7" data-name="Path 7" class="cls-3" d="M1.5 0A1.5 1.5 0 1 1 0 1.5 1.5 1.5 0 0 1 1.5 0z" transform="translate(1430 -220.3)"/></g><g transform="translate(-1395 220.3)"><path id="Path_7-8" data-name="Path 7" class="cls-3" d="M1.5 0A1.5 1.5 0 1 1 0 1.5 1.5 1.5 0 0 1 1.5 0z" transform="translate(1430 -220.3)"/></g><g transform="translate(-1430 225.3)"><path id="Path_7-9" data-name="Path 7" class="cls-3" d="M1.5 0A1.5 1.5 0 1 1 0 1.5 1.5 1.5 0 0 1 1.5 0z" transform="translate(1430 -220.3)"/></g><g transform="translate(-1425 225.3)"><path id="Path_7-10" data-name="Path 7" class="cls-3" d="M1.5 0A1.5 1.5 0 1 1 0 1.5 1.5 1.5 0 0 1 1.5 0z" transform="translate(1430 -220.3)"/></g><g transform="translate(-1420 225.3)"><path id="Path_7-11" data-name="Path 7" class="cls-3" d="M1.5 0A1.5 1.5 0 1 1 0 1.5 1.5 1.5 0 0 1 1.5 0z" transform="translate(1430 -220.3)"/></g><g transform="translate(-1415 225.3)"><path id="Path_7-12" data-name="Path 7" class="cls-3" d="M1.5 0A1.5 1.5 0 1 1 0 1.5 1.5 1.5 0 0 1 1.5 0z" transform="translate(1430 -220.3)"/></g><g transform="translate(-1410 225.3)"><path id="Path_7-13" data-name="Path 7" class="cls-3" d="M1.5 0A1.5 1.5 0 1 1 0 1.5 1.5 1.5 0 0 1 1.5 0z" transform="translate(1430 -220.3)"/></g><g transform="translate(-1405 225.3)"><path id="Path_7-14" data-name="Path 7" class="cls-3" d="M1.5 0A1.5 1.5 0 1 1 0 1.5 1.5 1.5 0 0 1 1.5 0z" transform="translate(1430 -220.3)"/></g><g transform="translate(-1400 225.3)"><path id="Path_7-15" data-name="Path 7" class="cls-3" d="M1.5 0A1.5 1.5 0 1 1 0 1.5 1.5 1.5 0 0 1 1.5 0z" transform="translate(1430 -220.3)"/></g><g transform="translate(-1395 225.3)"><path id="Path_7-16" data-name="Path 7" class="cls-3" d="M1.5 0A1.5 1.5 0 1 1 0 1.5 1.5 1.5 0 0 1 1.5 0z" transform="translate(1430 -220.3)"/></g><g transform="translate(-1430 230.3)"><path id="Path_7-17" data-name="Path 7" class="cls-3" d="M1.5 0A1.5 1.5 0 1 1 0 1.5 1.5 1.5 0 0 1 1.5 0z" transform="translate(1430 -220.3)"/></g><g transform="translate(-1425 230.3)"><path id="Path_7-18" data-name="Path 7" class="cls-3" d="M1.5 0A1.5 1.5 0 1 1 0 1.5 1.5 1.5 0 0 1 1.5 0z" transform="translate(1430 -220.3)"/></g><g transform="translate(-1420 230.3)"><path id="Path_7-19" data-name="Path 7" class="cls-3" d="M1.5 0A1.5 1.5 0 1 1 0 1.5 1.5 1.5 0 0 1 1.5 0z" transform="translate(1430 -220.3)"/></g><g transform="translate(-1415 230.3)"><path id="Path_7-20" data-name="Path 7" class="cls-3" d="M1.5 0A1.5 1.5 0 1 1 0 1.5 1.5 1.5 0 0 1 1.5 0z" transform="translate(1430 -220.3)"/></g><g transform="translate(-1410 230.3)"><path id="Path_7-21" data-name="Path 7" class="cls-3" d="M1.5 0A1.5 1.5 0 1 1 0 1.5 1.5 1.5 0 0 1 1.5 0z" transform="translate(1430 -220.3)"/></g><g transform="translate(-1405 230.3)"><path id="Path_7-22" data-name="Path 7" class="cls-3" d="M1.5 0A1.5 1.5 0 1 1 0 1.5 1.5 1.5 0 0 1 1.5 0z" transform="translate(1430 -220.3)"/></g><g transform="translate(-1400 230.3)"><path id="Path_7-23" data-name="Path 7" class="cls-3" d="M1.5 0A1.5 1.5 0 1 1 0 1.5 1.5 1.5 0 0 1 1.5 0z" transform="translate(1430 -220.3)"/></g><g transform="translate(-1395 230.3)"><path id="Path_7-24" data-name="Path 7" class="cls-3" d="M1.5 0A1.5 1.5 0 1 1 0 1.5 1.5 1.5 0 0 1 1.5 0z" transform="translate(1430 -220.3)"/></g></g></svg>