<svg xmlns="http://www.w3.org/2000/svg" viewBox="0 0 36.857 14" width="38px" height="14px"><defs/><g id="Group_2" data-name="Group 2" transform="translate(-1285 127)"><path id="line" class="cls-1" d="M43.9 38.733l2.125 1.967 2.789-2.547 3.108 3.382-4.134 3.832a2.683 2.683 0 0 1-3.429 0l-3.492-3.206z" transform="translate(1262.975 -159.032)"/><path id="line-2" data-name="line" class="cls-1" d="M17.212 29.712l4.375-3.74a2.492 2.492 0 0 1 1.619-.571 2.584 2.584 0 0 1 1.714.667l4.037 3.645-3.152 3.446-2.6-2.472-2.9 2.472z" transform="translate(1275.365 -152.352)"/><path id="line-3" data-name="line" class="cls-1" d="M63.948 28.551l2.882-2.584a2.5 2.5 0 0 1 1.714-.667 2.666 2.666 0 0 1 1.667.619 2.161 2.161 0 0 1 .762 1.571 2.133 2.133 0 0 1-.714 1.619l-3.145 2.866z" transform="translate(1250.885 -152.3)"/><path id="line-4" data-name="line" class="cls-1" d="M3.729 47.083a2.411 2.411 0 0 1-1.714-.667A2.133 2.133 0 0 1 1.3 44.8a2.009 2.009 0 0 1 .762-1.571l3.595-3.067 2.9 3.6-3.157 2.75a2.929 2.929 0 0 1-1.671.571z" transform="translate(1283.7 -160.083)"/></g></svg>