<svg id="Layer_1" data-name="Layer 1" xmlns="http://www.w3.org/2000/svg" width="0.3067in" height="0.3091in" viewBox="0 0 22.0806 22.2578"><title>hand_cone</title><path id="Path_3998" data-name="Path 3998" d="M21.4509,13.2681a1.0155,1.0155,0,1,0-1.9068.6993l-.1879.0684-.2083-.5722a1.0161,1.0161,0,1,0-1.91.695l.2083.5722-.1879.0684-.35-.9622a1.016,1.016,0,1,0-1.9094.695l.3475.9547-.188.0684-1.7367-4.7718a1.0161,1.0161,0,1,0-1.91.695l2.3969,6.5854-1.1519-.7673a.9194.9194,0,0,0-.7428-.149,1.0133,1.0133,0,0,0-.6551.4279.9492.9492,0,0,0-.1558.7591,1.0243,1.0243,0,0,0,.4408.6643l4.5825,3.0879a.9649.9649,0,0,0,.9019.1038l4.9662-1.8076a1.0107,1.0107,0,0,0,.5229-.42.9508.9508,0,0,0,.1383-.658l-.418-3.5225a.9466.9466,0,0,0-.0548-.2237ZM16.0376,17.4l.8338,2.291-.1879.0684-.8339-2.291Zm2.0992-.764.8339,2.2909-.188.0684-.8338-2.2909Zm2.0993-.7641.8338,2.291-.1879.0684-.8338-2.291Z" transform="translate(-0.687 0.0003)" fill="#fff"/><path id="Path_3997" data-name="Path 3997" d="M10.4323,14.4728,1.63,8.1378,15.369.7977l.8537,9.8224" transform="translate(-0.687 0.0003)" fill="none" stroke="#fff"/></svg>