<?xml version="1.0" encoding="utf-8"?>
<!-- Generator: Adobe Illustrator 22.1.0, SVG Export Plug-In . SVG Version: 6.00 Build 0)  -->
<svg version="1.1" id="Layer_1" xmlns="http://www.w3.org/2000/svg" xmlns:xlink="http://www.w3.org/1999/xlink" x="0px" y="0px"
	 width="25px" height="25px" viewBox="0 0 25 25" enable-background="new 0 0 25 25" xml:space="preserve">
<g id="Group_12171" transform="translate(312 3500)">
	<path id="Path_1253" fill="#FFFFFF" d="M-299.5-3500c6.9036,0,12.5,5.5964,12.5,12.5s-5.5964,12.5-12.5,12.5
		s-12.5-5.5964-12.5-12.5S-306.4036-3500-299.5-3500z"/>
	<path id="Path_3999" fill="#333333" d="M-293-3490.719c0.0059-0.3245-0.1226-0.6367-0.355-0.863
		c-0.2263-0.2324-0.5387-0.3608-0.863-0.355h-2.235l-0.3-0.8379c-0.0957-0.2295-0.2541-0.4275-0.457-0.571
		c-0.2-0.1431-0.4402-0.2188-0.686-0.2161h-3.204c-0.2458-0.0027-0.4861,0.073-0.686,0.2161
		c-0.2029,0.1436-0.3613,0.3416-0.457,0.571l-0.3,0.8379h-2.238c-0.3243-0.0059-0.6367,0.1226-0.863,0.355
		c-0.2327,0.2261-0.3616,0.5386-0.356,0.863v7.313c-0.0059,0.3245,0.1226,0.6367,0.355,0.863
		c0.2263,0.2324,0.5387,0.3608,0.863,0.355h10.563c0.3243,0.0059,0.6367-0.1226,0.863-0.355
		c0.2328-0.2261,0.3616-0.5386,0.356-0.863V-3490.719z M-296.453-3487.062c0.0052,0.5393-0.1351,1.0698-0.406,1.5361
		c-0.2638,0.4568-0.6432,0.8362-1.1,1.0999c-0.4673,0.2732-0.9997,0.4148-1.541,0.4099c-0.5392,0.0054-1.0698-0.135-1.536-0.406
		c-0.4568-0.2637-0.8362-0.6431-1.1-1.0999c-0.2709-0.4663-0.4112-0.9968-0.406-1.5361c-0.0078-0.5405,0.1308-1.0735,0.401-1.542
		c0.2638-0.4568,0.6432-0.8362,1.1-1.0999c0.4673-0.2729,0.9998-0.4143,1.541-0.4089c0.5395-0.0044,1.0701,0.137,1.536,0.4089
		c0.4568,0.2637,0.8362,0.6431,1.1,1.0999C-296.591-3488.1338-296.449-3487.6023-296.453-3487.062z M-297.265-3487.062
		c0.0067-0.5933-0.2321-1.1628-0.66-1.574c-0.4106-0.4297-0.9808-0.6699-1.575-0.6641c-0.5933-0.0066-1.1629,0.2322-1.574,0.6602
		c-0.4279,0.4109-0.6667,0.9807-0.66,1.574c-0.0067,0.5933,0.2321,1.1628,0.66,1.574c0.4111,0.4277,0.9807,0.6667,1.574,0.6599
		c0.5933,0.0068,1.1629-0.2322,1.574-0.6599c0.4268-0.4102,0.6656-0.9783,0.66-1.5701H-297.265z"/>
</g>
</svg>
